HIERARCHY
ROOT Hips
{
     OFFSET 1.88212 96.90440 -13.34250
     CHANNELS 6 Xposition Yposition Zposition Zrotation Xrotation Yrotation
     JOINT Spine
     {
          OFFSET 0.00000 11.89050 0.00000
          CHANNELS 3 Zrotation Xrotation Yrotation
          JOINT Spine1
          {
               OFFSET -0.00000 25.65740 0.12766
               CHANNELS 3 Zrotation Xrotation Yrotation
               JOINT HEad
               {
                    OFFSET 0.00000 8.73416 0.01134
                    CHANNELS 3 Zrotation Xrotation Yrotation
                    End Site
                    {
                         OFFSET -0.29000 12.77420 2.51395
                    }
               }
               JOINT LeftShoulder1
               {
                    OFFSET 8.99000 -0.36225 -0.22000
                    CHANNELS 3 Zrotation Xrotation Yrotation
                    JOINT LeftArm
                    {
                         OFFSET 10.28270 -0.00338 0.32212
                         CHANNELS 3 Zrotation Xrotation Yrotation
                         JOINT LeftForeArm
                         {
                              OFFSET 32.76690 0.09914 -1.42434
                              CHANNELS 3 Zrotation Xrotation Yrotation
                              JOINT LeftHand
                              {
                                   OFFSET 27.56430 0.08536 1.02216
                                   CHANNELS 3 Zrotation Xrotation Yrotation
                                   End Site
                                   {
                                        OFFSET 16.74430 -0.60000 1.50291
                                   }
                              }
                         }
                    }
               }
               JOINT RightShoulder
               {
                    OFFSET -8.99000 -0.36225 -0.22000
                    CHANNELS 3 Zrotation Xrotation Yrotation
                    JOINT RightArm
                    {
                         OFFSET -10.28270 -0.00338 0.32212
                         CHANNELS 3 Zrotation Xrotation Yrotation
                         JOINT RightForeArm
                         {
                              OFFSET -32.89710 0.09914 -1.42434
                              CHANNELS 3 Zrotation Xrotation Yrotation
                              JOINT RightHand
                              {
                                   OFFSET -27.49210 0.08536 1.02216
                                   CHANNELS 3 Zrotation Xrotation Yrotation
                                   End Site
                                   {
                                        OFFSET -16.63120 -0.60000 1.50291
                                   }
                              }
                         }
                    }
               }
          }
     }
     JOINT LeftUpLeg
     {
          OFFSET 8.94580 -8.66707 0.10165
          CHANNELS 3 Zrotation Xrotation Yrotation
          JOINT LeftLeg
          {
               OFFSET 0.00000 -44.42270 1.37270
               CHANNELS 3 Zrotation Xrotation Yrotation
               JOINT LeftFoot
               {
                    OFFSET -0.25355 -42.09240 -1.46059
                    CHANNELS 3 Zrotation Xrotation Yrotation
                    JOINT LeftToes
                    {
                         OFFSET -0.04000 -4.41509 8.49910
                         CHANNELS 3 Zrotation Xrotation Yrotation
                         End Site
                         {
                              OFFSET 0.08000 -0.04745 9.77979
                         }
                    }
               }
          }
     }
     JOINT RightUpLeg
     {
          OFFSET -8.94580 -8.66707 0.10165
          CHANNELS 3 Zrotation Xrotation Yrotation
          JOINT RightLeg
          {
               OFFSET 0.00000 -44.42270 1.37270
               CHANNELS 3 Zrotation Xrotation Yrotation
               JOINT RightFoot
               {
                    OFFSET 0.25355 -42.09240 -1.46059
                    CHANNELS 3 Zrotation Xrotation Yrotation
                    JOINT RightToes
                    {
                         OFFSET 0.04000 -4.41509 8.49910
                         CHANNELS 3 Zrotation Xrotation Yrotation
                         End Site
                         {
                              OFFSET -0.08000 -0.13745 9.77979
                         }
                    }
               }
          }
     }
}
MOTION
Frames: 6
Frame Time: 0.01667
-968.45837 93.70422 759.75421 -25.10413 -28.30036 -88.57020 -41.51130 37.33268 2.50188 0.02736 0.01148 0.04883 -2.41885 2.83676 46.08137 2.84123 6.41549 11.13118 -136.14204 -44.73783 -125.16272 -42.03693 54.45047 -61.66421 19.55242 3.70228 -20.32546 7.06167 8.01718 10.55411 67.69060 14.41387 85.95909 -13.74207 18.13909 98.06615 14.95097 9.57781 7.99026 1.93320 -8.49759 6.63024 -32.55212 50.30396 30.03499 -30.68720 0.38516 0.18273 -3.76449 8.84040 31.26784 -49.08709 11.96266 19.05626 47.71365 3.71689 -32.50903 -30.10951 0.00913 0.01232 1.49588 -23.77152 20.29585 
-967.96954 93.40151 759.17578 -27.36377 -30.41620 -90.25139 -45.26582 37.71390 1.89399 0.02233 0.01407 0.04581 -5.96952 1.74216 40.53732 3.80371 7.19334 14.83298 -125.70509 -47.42950 -117.27623 -28.90672 45.13662 -64.41281 14.99894 16.32207 -0.87211 7.16046 8.74157 14.17120 65.76945 15.48467 86.23621 -12.26893 17.99529 97.09222 23.39476 7.80434 12.72197 0.89286 -9.03954 12.95474 -30.14416 55.15544 37.26178 -30.11477 -0.00206 -0.00289 -13.69803 -2.45984 21.52674 -52.51057 11.01786 21.06225 50.93181 4.00077 -34.38563 -27.34731 0.01833 0.01035 -3.07468 -24.67017 20.44030 
-967.52148 93.22250 758.58252 -29.42827 -32.18621 -91.91723 -46.48816 37.84003 1.56434 0.08859 0.04040 0.11477 -11.11647 1.14693 32.63699 3.23936 7.83598 16.71423 -111.71108 -49.84010 -106.04080 -18.32243 32.88403 -64.32822 11.47911 8.80164 -18.48029 5.96621 9.19932 15.94802 64.57038 16.49961 86.48616 -11.10968 18.06276 96.14464 15.93728 10.93306 8.14698 1.06010 -10.82073 19.89097 -25.06463 58.74534 41.90237 -30.08816 -0.01935 -0.02121 -6.48217 10.54996 12.36411 -55.24586 10.32846 22.87735 52.84974 4.86888 -35.83212 -23.52150 0.01675 0.02686 -7.64486 -25.78518 20.22125 
-967.11829 93.13332 757.95844 -31.40475 -33.74673 -93.62504 -45.88496 37.88711 1.72190 0.06680 0.04269 0.11165 -17.06546 1.38270 24.33414 1.44335 8.28307 16.70203 -94.75916 -50.46329 -91.64162 -10.24952 18.57572 -61.00649 8.46626 11.84200 -0.99672 3.91153 9.48942 16.03666 63.86579 17.84233 86.64532 -10.41766 18.62036 95.43681 21.47300 9.83031 11.01739 2.66790 -13.63959 27.33721 -15.86571 60.60734 40.66570 -30.09576 -0.01234 -0.07440 -18.67294 5.16469 3.54928 -57.36041 9.88314 24.55441 53.68618 5.97796 -36.93525 -19.02764 0.01766 0.03412 -12.25931 -26.78739 19.79144 
-966.76978 93.08927 757.30847 -33.36175 -35.15499 -95.38302 -44.93519 37.61766 1.93233 -0.01501 0.01643 0.01657 -22.70562 2.45530 17.10708 -0.70958 8.95822 16.27416 -77.10833 -48.00437 -75.77387 -4.22568 2.82761 -55.37637 2.96613 4.60813 -28.40873 1.77480 10.10653 15.92728 63.50914 19.27582 86.62724 -9.98438 19.42105 94.75650 17.45588 11.24851 7.76160 5.90836 -17.03962 35.12216 -4.58338 60.71486 34.36723 -30.08353 0.00426 -0.08666 -23.78903 3.70735 -3.13148 -58.88770 9.64069 26.10776 53.63284 7.15263 -37.82148 -14.13943 0.01965 0.03159 -16.91111 -27.62845 19.35843 
-966.54688 93.00374 756.70544 -35.33347 -36.40155 -97.17094 -43.76994 37.14138 2.21155 -0.02352 0.01994 0.00668 -28.01368 4.15928 10.88634 -2.81031 9.81798 15.29108 -61.99155 -42.10692 -61.11694 0.34990 -13.48876 -48.42070 0.74133 10.99755 -7.04211 -0.17646 10.95170 15.56812 63.18991 20.80795 86.23849 -9.84648 20.49026 94.24334 20.38656 10.64798 9.66932 11.11670 -20.61172 43.02048 6.29853 58.65973 24.80165 -30.04564 -0.01476 -0.09627 -29.52384 0.59277 -6.89437 -59.86996 9.50010 27.53960 52.97626 7.83663 -38.27707 -33.65555 -0.02103 0.00283 2.62245 -27.71920 18.97596 
